<mxfile host="app.diagrams.net" modified="2021-03-02T09:36:33.123Z" agent="5.0 (Windows NT 10.0; Win64; x64) AppleWebKit/537.36 (KHTML, like Gecko) Chrome/88.0.4324.182 Safari/537.36 Edg/88.0.705.81" etag="bBtr90URGq-L1KdoGDTp" version="14.4.2" type="github">
  <diagram id="ATwRWdSjiGYuOQdxtYLr" name="Page-1">
    <mxGraphModel dx="1422" dy="772" grid="1" gridSize="10" guides="1" tooltips="1" connect="1" arrows="1" fold="1" page="1" pageScale="1" pageWidth="827" pageHeight="1169" math="0" shadow="0">
      <root>
        <mxCell id="0" />
        <mxCell id="1" parent="0" />
        <mxCell id="czbbIuMilyfHxjdlmmi1-3" style="edgeStyle=orthogonalEdgeStyle;rounded=0;orthogonalLoop=1;jettySize=auto;html=1;" edge="1" parent="1" source="czbbIuMilyfHxjdlmmi1-1" target="czbbIuMilyfHxjdlmmi1-2">
          <mxGeometry relative="1" as="geometry" />
        </mxCell>
        <mxCell id="czbbIuMilyfHxjdlmmi1-4" value="编译" style="edgeLabel;html=1;align=center;verticalAlign=middle;resizable=0;points=[];" vertex="1" connectable="0" parent="czbbIuMilyfHxjdlmmi1-3">
          <mxGeometry x="-0.24" relative="1" as="geometry">
            <mxPoint as="offset" />
          </mxGeometry>
        </mxCell>
        <mxCell id="czbbIuMilyfHxjdlmmi1-1" value="User.java" style="rounded=0;whiteSpace=wrap;html=1;fillColor=#d5e8d4;strokeColor=#82b366;" vertex="1" parent="1">
          <mxGeometry x="320" y="180" width="120" height="60" as="geometry" />
        </mxCell>
        <mxCell id="czbbIuMilyfHxjdlmmi1-8" value="文件加载" style="edgeStyle=orthogonalEdgeStyle;rounded=0;orthogonalLoop=1;jettySize=auto;html=1;entryX=0.5;entryY=0;entryDx=0;entryDy=0;" edge="1" parent="1" source="czbbIuMilyfHxjdlmmi1-2" target="czbbIuMilyfHxjdlmmi1-7">
          <mxGeometry relative="1" as="geometry" />
        </mxCell>
        <mxCell id="czbbIuMilyfHxjdlmmi1-2" value="User.class" style="rounded=0;whiteSpace=wrap;html=1;fillColor=#d5e8d4;strokeColor=#82b366;" vertex="1" parent="1">
          <mxGeometry x="320" y="340" width="120" height="60" as="geometry" />
        </mxCell>
        <mxCell id="czbbIuMilyfHxjdlmmi1-5" value="JVM" style="rounded=0;whiteSpace=wrap;html=1;fillColor=#dae8fc;strokeColor=#6c8ebf;" vertex="1" parent="1">
          <mxGeometry x="260" y="510" width="240" height="120" as="geometry" />
        </mxCell>
        <mxCell id="czbbIuMilyfHxjdlmmi1-7" value="类加载器" style="rounded=0;whiteSpace=wrap;html=1;fillColor=#f8cecc;strokeColor=#b85450;" vertex="1" parent="1">
          <mxGeometry x="330" y="490" width="100" height="40" as="geometry" />
        </mxCell>
      </root>
    </mxGraphModel>
  </diagram>
</mxfile>
